<svg 
 xmlns="http://www.w3.org/2000/svg"
 xmlns:xlink="http://www.w3.org/1999/xlink"
 width="50px" height="50px">
<path fill-rule="evenodd"  fill="rgb(6, 116, 236)"
 d="M49.090,40.345 C48.928,40.507 48.716,40.589 48.503,40.589 C48.290,40.589 48.078,40.507 47.916,40.345 C47.591,40.019 47.591,39.492 47.916,39.167 L48.503,38.577 C48.828,38.252 49.353,38.252 49.678,38.577 C50.002,38.903 50.002,39.430 49.678,39.756 L49.090,40.345 ZM45.327,44.120 C45.165,44.282 44.953,44.364 44.740,44.364 C44.527,44.364 44.315,44.282 44.153,44.120 C43.828,43.794 43.828,43.267 44.153,42.942 L45.407,41.683 C45.732,41.357 46.257,41.357 46.582,41.683 C46.906,42.009 46.906,42.536 46.582,42.862 L45.327,44.120 ZM43.418,40.833 L33.307,40.833 C32.849,40.833 32.476,40.461 32.476,40.000 C32.476,39.539 32.849,39.167 33.307,39.167 L42.730,39.167 L44.979,36.911 C45.304,36.585 45.829,36.585 46.154,36.911 C46.479,37.237 46.479,37.763 46.154,38.089 L43.418,40.833 ZM25.978,45.631 L13.215,27.141 C8.454,20.774 9.145,10.266 14.714,4.681 C17.722,1.662 21.723,-0.000 25.978,-0.000 C30.233,-0.000 34.233,1.662 37.242,4.682 C42.809,10.267 43.501,20.773 38.722,27.167 L25.978,45.631 ZM26.125,10.000 C22.918,10.000 20.310,12.617 20.310,15.833 C20.310,19.049 22.918,21.666 26.125,21.666 C29.331,21.666 31.940,19.049 31.940,15.833 C31.940,12.617 29.331,10.000 26.125,10.000 ZM19.185,40.000 C19.185,40.461 18.813,40.833 18.354,40.833 L5.894,40.833 C5.785,40.833 5.675,40.846 5.566,40.867 L5.255,40.962 C5.225,40.976 5.196,40.993 5.167,41.011 L5.007,41.097 C4.882,41.174 4.796,41.245 4.717,41.324 L1.497,44.554 C1.335,44.717 1.123,44.798 0.910,44.798 C0.697,44.798 0.485,44.717 0.322,44.554 C-0.003,44.228 -0.003,43.702 0.322,43.376 L3.542,40.146 C3.695,39.992 3.866,39.851 4.049,39.728 C4.122,39.679 4.192,39.642 4.263,39.607 L4.342,39.563 C4.434,39.510 4.527,39.460 4.626,39.419 C4.710,39.384 4.803,39.356 4.896,39.331 L5.005,39.298 C5.081,39.273 5.157,39.250 5.237,39.232 C5.463,39.188 5.682,39.167 5.894,39.167 L18.354,39.167 C18.813,39.167 19.185,39.539 19.185,40.000 ZM0.910,47.988 C1.235,47.662 1.760,47.662 2.085,47.988 C2.409,48.314 2.409,48.841 2.085,49.167 L1.497,49.756 C1.335,49.918 1.123,50.000 0.910,50.000 C0.697,50.000 0.485,49.918 0.323,49.756 C-0.002,49.430 -0.002,48.903 0.323,48.577 L0.910,47.988 ZM4.117,44.771 C4.442,44.445 4.967,44.445 5.292,44.771 C5.617,45.096 5.617,45.623 5.292,45.949 L4.223,47.022 C4.061,47.184 3.848,47.266 3.635,47.266 C3.423,47.266 3.210,47.184 3.048,47.022 C2.723,46.696 2.723,46.169 3.048,45.843 L4.117,44.771 ZM7.237,45.000 C6.778,45.000 6.406,44.627 6.406,44.167 C6.406,43.706 6.778,43.333 7.237,43.333 L8.748,43.333 C9.207,43.333 9.579,43.706 9.579,44.167 C9.579,44.627 9.207,45.000 8.748,45.000 L7.237,45.000 ZM11.773,45.000 C11.314,45.000 10.942,44.627 10.942,44.167 C10.942,43.706 11.314,43.333 11.773,43.333 L13.286,43.333 C13.744,43.333 14.116,43.706 14.116,44.167 C14.116,44.627 13.744,45.000 13.286,45.000 L11.773,45.000 ZM16.310,45.000 C15.852,45.000 15.480,44.627 15.480,44.167 C15.480,43.706 15.852,43.333 16.310,43.333 L17.822,43.333 C18.281,43.333 18.653,43.706 18.653,44.167 C18.653,44.627 18.281,45.000 17.822,45.000 L16.310,45.000 ZM20.847,45.000 C20.388,45.000 20.016,44.627 20.016,44.167 C20.016,43.706 20.388,43.333 20.847,43.333 L21.677,43.333 C22.136,43.333 22.508,43.706 22.508,44.167 C22.508,44.627 22.136,45.000 21.677,45.000 L20.847,45.000 ZM29.984,45.000 C29.526,45.000 29.154,44.627 29.154,44.167 C29.154,43.706 29.526,43.333 29.984,43.333 L30.815,43.333 C31.274,43.333 31.646,43.706 31.646,44.167 C31.646,44.627 31.274,45.000 30.815,45.000 L29.984,45.000 ZM34.362,45.000 C33.903,45.000 33.531,44.627 33.531,44.167 C33.531,43.706 33.903,43.333 34.362,43.333 L36.136,43.333 C36.594,43.333 36.966,43.706 36.966,44.167 C36.966,44.627 36.594,45.000 36.136,45.000 L34.362,45.000 ZM39.683,45.000 C39.223,45.000 38.852,44.627 38.852,44.167 C38.852,43.706 39.223,43.333 39.683,43.333 L41.456,43.333 C41.915,43.333 42.287,43.706 42.287,44.167 C42.287,44.627 41.915,45.000 41.456,45.000 L39.683,45.000 ZM6.633,47.500 L44.106,47.500 C44.215,47.500 44.323,47.488 44.428,47.467 L44.659,47.397 C44.687,47.389 44.714,47.383 44.740,47.372 C44.773,47.359 44.805,47.338 44.839,47.320 L44.995,47.235 C45.119,47.157 45.205,47.087 45.283,47.009 L48.503,43.779 C48.828,43.454 49.353,43.453 49.678,43.779 C50.002,44.105 50.002,44.632 49.678,44.957 L46.458,48.187 C46.303,48.343 46.131,48.484 45.948,48.607 C45.884,48.650 45.814,48.687 45.743,48.723 L45.660,48.768 C45.569,48.821 45.478,48.870 45.380,48.911 C45.287,48.950 45.195,48.977 45.102,49.003 L44.998,49.034 C44.918,49.061 44.838,49.085 44.753,49.102 C44.541,49.145 44.322,49.167 44.106,49.167 L7.219,49.167 L6.414,49.816 C6.261,49.940 6.077,50.000 5.894,50.000 C5.652,50.000 5.411,49.893 5.247,49.689 C4.959,49.332 5.016,48.807 5.373,48.517 L6.633,47.500 Z"/>
</svg>